<mxfile host="Electron" modified="2023-06-10T14:33:54.679Z" agent="Mozilla/5.0 (Windows NT 10.0; Win64; x64) AppleWebKit/537.36 (KHTML, like Gecko) draw.io/21.2.8 Chrome/112.0.5615.165 Electron/24.2.0 Safari/537.36" etag="g135Y-znu8qFbMcBRRly" version="21.2.8" type="device" pages="4">
  <diagram name="父类和子类的造型" id="6G_93_Uh-LkU5gCm4CKA">
    <mxGraphModel dx="1781" dy="657" grid="1" gridSize="10" guides="1" tooltips="1" connect="1" arrows="1" fold="1" page="1" pageScale="1" pageWidth="827" pageHeight="1169" math="0" shadow="0">
      <root>
        <mxCell id="0" />
        <mxCell id="1" parent="0" />
        <mxCell id="qZUYWmvgt2552BvAGYDl-25" value="" style="rounded=0;whiteSpace=wrap;html=1;fontFamily=Helvetica;fontSize=11;fontColor=default;strokeWidth=3;dashed=1;dashPattern=8 8;strokeColor=#285ba9;" parent="1" vertex="1">
          <mxGeometry x="320" y="60" width="320" height="280" as="geometry" />
        </mxCell>
        <mxCell id="qZUYWmvgt2552BvAGYDl-24" value="" style="rounded=0;whiteSpace=wrap;html=1;fontFamily=Helvetica;fontSize=11;fontColor=default;strokeWidth=3;dashed=1;dashPattern=8 8;strokeColor=#085caf;" parent="1" vertex="1">
          <mxGeometry y="60" width="320" height="280" as="geometry" />
        </mxCell>
        <mxCell id="qZUYWmvgt2552BvAGYDl-13" value="&lt;b style=&quot;border-color: var(--border-color); color: rgb(0, 0, 0); font-family: Helvetica; font-size: 17px; font-style: normal; font-variant-ligatures: normal; font-variant-caps: normal; letter-spacing: normal; orphans: 2; text-align: center; text-indent: 0px; text-transform: none; widows: 2; word-spacing: 0px; -webkit-text-stroke-width: 0px; background-color: rgb(251, 251, 251); text-decoration-thickness: initial; text-decoration-style: initial; text-decoration-color: initial;&quot;&gt;&lt;font style=&quot;border-color: var(--border-color); font-size: 14px;&quot;&gt;&lt;br&gt;&lt;/font&gt;&lt;/b&gt;" style="text;whiteSpace=wrap;html=1;fontSize=11;fontFamily=Helvetica;fontColor=default;" parent="1" vertex="1">
          <mxGeometry x="350" y="175" width="144" height="40" as="geometry" />
        </mxCell>
        <mxCell id="qZUYWmvgt2552BvAGYDl-19" style="edgeStyle=orthogonalEdgeStyle;shape=connector;rounded=0;orthogonalLoop=1;jettySize=auto;html=1;exitX=0.75;exitY=0;exitDx=0;exitDy=0;entryX=0.75;entryY=1;entryDx=0;entryDy=0;labelBackgroundColor=default;strokeColor=default;strokeWidth=2;fontFamily=Helvetica;fontSize=11;fontColor=default;endArrow=blockThin;endFill=1;" parent="1" source="qZUYWmvgt2552BvAGYDl-1" target="qZUYWmvgt2552BvAGYDl-2" edge="1">
          <mxGeometry relative="1" as="geometry" />
        </mxCell>
        <mxCell id="qZUYWmvgt2552BvAGYDl-1" value="较小的基本数据类型" style="rounded=0;whiteSpace=wrap;html=1;strokeWidth=2;fillColor=#B9E0A5;fontStyle=1;fontSize=15;" parent="1" vertex="1">
          <mxGeometry x="60" y="280" width="190" height="40" as="geometry" />
        </mxCell>
        <mxCell id="qZUYWmvgt2552BvAGYDl-20" style="edgeStyle=orthogonalEdgeStyle;shape=connector;rounded=0;orthogonalLoop=1;jettySize=auto;html=1;exitX=0.25;exitY=1;exitDx=0;exitDy=0;entryX=0.25;entryY=0;entryDx=0;entryDy=0;labelBackgroundColor=default;strokeColor=default;strokeWidth=2;fontFamily=Helvetica;fontSize=11;fontColor=default;endArrow=blockThin;endFill=1;" parent="1" source="qZUYWmvgt2552BvAGYDl-2" target="qZUYWmvgt2552BvAGYDl-1" edge="1">
          <mxGeometry relative="1" as="geometry" />
        </mxCell>
        <mxCell id="qZUYWmvgt2552BvAGYDl-2" value="较大的基本数据类型" style="rounded=0;whiteSpace=wrap;html=1;strokeWidth=2;fontStyle=1;fillColor=#B9E0A5;fontSize=15;" parent="1" vertex="1">
          <mxGeometry x="60" y="70" width="190" height="40" as="geometry" />
        </mxCell>
        <mxCell id="qZUYWmvgt2552BvAGYDl-5" value="&lt;b style=&quot;font-size: 14px;&quot;&gt;&lt;font style=&quot;font-size: 14px;&quot;&gt;强制类型转换&lt;/font&gt;&lt;/b&gt;" style="text;html=1;strokeColor=none;fillColor=none;align=center;verticalAlign=middle;whiteSpace=wrap;rounded=0;fontSize=14;fontFamily=Helvetica;fontColor=default;" parent="1" vertex="1">
          <mxGeometry x="20" y="180" width="90" height="30" as="geometry" />
        </mxCell>
        <mxCell id="qZUYWmvgt2552BvAGYDl-6" value="&lt;b style=&quot;&quot;&gt;&lt;font style=&quot;font-size: 14px;&quot;&gt;自动类型提升&lt;/font&gt;&lt;/b&gt;" style="text;html=1;strokeColor=none;fillColor=none;align=center;verticalAlign=middle;whiteSpace=wrap;rounded=0;fontSize=17;fontFamily=Helvetica;fontColor=default;" parent="1" vertex="1">
          <mxGeometry x="200" y="180" width="90" height="30" as="geometry" />
        </mxCell>
        <mxCell id="qZUYWmvgt2552BvAGYDl-8" value="子类" style="rounded=0;whiteSpace=wrap;html=1;strokeWidth=2;fillColor=#99CCFF;fontStyle=1;fontSize=15;" parent="1" vertex="1">
          <mxGeometry x="370" y="280" width="190" height="40" as="geometry" />
        </mxCell>
        <mxCell id="qZUYWmvgt2552BvAGYDl-16" style="edgeStyle=orthogonalEdgeStyle;shape=connector;rounded=0;orthogonalLoop=1;jettySize=auto;html=1;exitX=0.75;exitY=1;exitDx=0;exitDy=0;entryX=0.75;entryY=0;entryDx=0;entryDy=0;labelBackgroundColor=default;strokeColor=default;strokeWidth=2;fontFamily=Helvetica;fontSize=11;fontColor=default;endArrow=blockThin;endFill=1;" parent="1" source="qZUYWmvgt2552BvAGYDl-10" target="qZUYWmvgt2552BvAGYDl-8" edge="1">
          <mxGeometry relative="1" as="geometry" />
        </mxCell>
        <mxCell id="qZUYWmvgt2552BvAGYDl-17" style="edgeStyle=orthogonalEdgeStyle;shape=connector;rounded=0;orthogonalLoop=1;jettySize=auto;html=1;exitX=0.25;exitY=1;exitDx=0;exitDy=0;entryX=0.25;entryY=0;entryDx=0;entryDy=0;labelBackgroundColor=default;strokeColor=default;strokeWidth=2;fontFamily=Helvetica;fontSize=11;fontColor=default;endArrow=blockThin;endFill=1;" parent="1" source="qZUYWmvgt2552BvAGYDl-10" target="qZUYWmvgt2552BvAGYDl-8" edge="1">
          <mxGeometry relative="1" as="geometry" />
        </mxCell>
        <mxCell id="qZUYWmvgt2552BvAGYDl-10" value="父类" style="rounded=0;whiteSpace=wrap;html=1;strokeWidth=2;fontStyle=1;fillColor=#a4cbfa;fontSize=15;" parent="1" vertex="1">
          <mxGeometry x="370" y="70" width="190" height="40" as="geometry" />
        </mxCell>
        <mxCell id="qZUYWmvgt2552BvAGYDl-12" value="&lt;b style=&quot;&quot;&gt;&lt;font style=&quot;font-size: 14px;&quot;&gt;向上转型：多态&lt;br&gt;&lt;/font&gt;&lt;/b&gt;&lt;strong style=&quot;box-sizing: border-box; padding: 0px 1px; font-family: Ubuntu, &amp;quot;Source Sans Pro&amp;quot;, sans-serif; font-size: 14px; orphans: 4; text-align: left; word-spacing: 0.8px; background-color: rgb(255, 255, 255);&quot;&gt;自动进行&lt;/strong&gt;&lt;b style=&quot;&quot;&gt;&lt;font style=&quot;font-size: 14px;&quot;&gt;&lt;br&gt;&lt;/font&gt;&lt;/b&gt;" style="text;html=1;strokeColor=none;fillColor=none;align=center;verticalAlign=middle;whiteSpace=wrap;rounded=0;fontSize=17;fontFamily=Helvetica;fontColor=default;" parent="1" vertex="1">
          <mxGeometry x="520" y="185" width="110" height="30" as="geometry" />
        </mxCell>
        <mxCell id="qZUYWmvgt2552BvAGYDl-22" value="&lt;b style=&quot;border-color: var(--border-color); color: rgb(0, 0, 0); font-family: Helvetica; font-style: normal; font-variant-ligatures: normal; font-variant-caps: normal; letter-spacing: normal; orphans: 2; text-indent: 0px; text-transform: none; widows: 2; word-spacing: 0px; -webkit-text-stroke-width: 0px; text-decoration-thickness: initial; text-decoration-style: initial; text-decoration-color: initial; font-size: 17px; text-align: center; background-color: rgb(251, 251, 251);&quot;&gt;&lt;font style=&quot;border-color: var(--border-color); font-size: 14px;&quot;&gt;&amp;nbsp;向下转型&amp;nbsp; &lt;br&gt;&amp;nbsp; &amp;nbsp; 造型&lt;/font&gt;&lt;/b&gt;" style="text;whiteSpace=wrap;html=1;fontSize=11;fontFamily=Helvetica;fontColor=default;" parent="1" vertex="1">
          <mxGeometry x="350" y="172.5" width="70" height="55" as="geometry" />
        </mxCell>
        <mxCell id="qZUYWmvgt2552BvAGYDl-23" value="&lt;span style=&quot;color: rgb(52, 73, 94); font-family: Ubuntu, &amp;quot;Source Sans Pro&amp;quot;, sans-serif; font-style: normal; font-variant-ligatures: normal; font-variant-caps: normal; font-weight: 400; letter-spacing: normal; orphans: 4; text-align: left; text-indent: 0px; text-transform: none; widows: 2; word-spacing: 0.8px; -webkit-text-stroke-width: 0px; background-color: rgb(255, 255, 255); text-decoration-thickness: initial; text-decoration-style: initial; text-decoration-color: initial; float: none; display: inline !important;&quot;&gt;&lt;font style=&quot;font-size: 14px;&quot;&gt;引用数据类型的强制转换&lt;/font&gt;&lt;/span&gt;" style="text;whiteSpace=wrap;html=1;fontSize=11;fontFamily=Helvetica;fontColor=default;" parent="1" vertex="1">
          <mxGeometry x="330" y="227.5" width="210" height="40" as="geometry" />
        </mxCell>
      </root>
    </mxGraphModel>
  </diagram>
  <diagram id="NF7b0yQ49Yp-eiHqWGYX" name="super构造器调用">
    <mxGraphModel dx="1949" dy="773" grid="1" gridSize="10" guides="1" tooltips="1" connect="1" arrows="1" fold="1" page="1" pageScale="1" pageWidth="827" pageHeight="1169" math="0" shadow="0">
      <root>
        <mxCell id="0" />
        <mxCell id="1" parent="0" />
        <mxCell id="Zg0RN65ZxF4rAXSrRmQK-29" value="" style="rounded=0;whiteSpace=wrap;html=1;strokeColor=default;strokeWidth=2;fontFamily=Helvetica;fontSize=11;fontColor=default;fillColor=#FFFFFF;dashed=1;" vertex="1" parent="1">
          <mxGeometry x="550" y="390" width="215" height="330" as="geometry" />
        </mxCell>
        <mxCell id="Zg0RN65ZxF4rAXSrRmQK-25" value="" style="rounded=0;whiteSpace=wrap;html=1;strokeColor=default;strokeWidth=2;fontFamily=Helvetica;fontSize=11;fontColor=default;fillColor=#FFFFFF;dashed=1;" vertex="1" parent="1">
          <mxGeometry x="295" y="315" width="215" height="405" as="geometry" />
        </mxCell>
        <mxCell id="Zg0RN65ZxF4rAXSrRmQK-23" value="" style="rounded=0;whiteSpace=wrap;html=1;strokeColor=default;strokeWidth=2;fontFamily=Helvetica;fontSize=11;fontColor=default;fillColor=#FFFFFF;dashed=1;" vertex="1" parent="1">
          <mxGeometry x="40" y="390" width="220" height="330" as="geometry" />
        </mxCell>
        <mxCell id="Zg0RN65ZxF4rAXSrRmQK-3" style="edgeStyle=orthogonalEdgeStyle;shape=connector;rounded=0;orthogonalLoop=1;jettySize=auto;html=1;exitX=0.5;exitY=1;exitDx=0;exitDy=0;labelBackgroundColor=default;strokeColor=default;strokeWidth=2;fontFamily=Helvetica;fontSize=11;fontColor=default;endArrow=blockThin;endFill=1;" edge="1" parent="1" source="Zg0RN65ZxF4rAXSrRmQK-1" target="Zg0RN65ZxF4rAXSrRmQK-2">
          <mxGeometry relative="1" as="geometry" />
        </mxCell>
        <mxCell id="Zg0RN65ZxF4rAXSrRmQK-1" value="&lt;b&gt;产生对象并对成员变量默认初始化&lt;/b&gt;" style="rounded=0;whiteSpace=wrap;html=1;fontFamily=Helvetica;fontSize=11;fontColor=default;fillColor=#69CDFF;strokeWidth=2;" vertex="1" parent="1">
          <mxGeometry x="310" y="330" width="190" height="30" as="geometry" />
        </mxCell>
        <mxCell id="Zg0RN65ZxF4rAXSrRmQK-5" style="edgeStyle=orthogonalEdgeStyle;shape=connector;rounded=0;orthogonalLoop=1;jettySize=auto;html=1;exitX=0.5;exitY=1;exitDx=0;exitDy=0;labelBackgroundColor=default;strokeColor=default;strokeWidth=2;fontFamily=Helvetica;fontSize=11;fontColor=default;endArrow=blockThin;endFill=1;" edge="1" parent="1" source="Zg0RN65ZxF4rAXSrRmQK-2" target="Zg0RN65ZxF4rAXSrRmQK-4">
          <mxGeometry relative="1" as="geometry" />
        </mxCell>
        <mxCell id="Zg0RN65ZxF4rAXSrRmQK-2" value="&lt;b&gt;对构造器中的形参赋值&lt;/b&gt;" style="rounded=0;whiteSpace=wrap;html=1;fontFamily=Helvetica;fontSize=11;fontColor=default;fillColor=#69CDFF;strokeWidth=2;" vertex="1" parent="1">
          <mxGeometry x="310" y="400" width="190" height="30" as="geometry" />
        </mxCell>
        <mxCell id="Zg0RN65ZxF4rAXSrRmQK-7" value="N" style="edgeStyle=orthogonalEdgeStyle;shape=connector;rounded=0;orthogonalLoop=1;jettySize=auto;html=1;exitX=0.5;exitY=1;exitDx=0;exitDy=0;entryX=0.5;entryY=0;entryDx=0;entryDy=0;labelBackgroundColor=default;strokeColor=default;strokeWidth=2;fontFamily=Helvetica;fontSize=11;fontColor=default;endArrow=blockThin;endFill=1;" edge="1" parent="1" source="Zg0RN65ZxF4rAXSrRmQK-4" target="Zg0RN65ZxF4rAXSrRmQK-6">
          <mxGeometry relative="1" as="geometry" />
        </mxCell>
        <mxCell id="Zg0RN65ZxF4rAXSrRmQK-27" value="Y" style="edgeStyle=orthogonalEdgeStyle;shape=connector;rounded=0;orthogonalLoop=1;jettySize=auto;html=1;exitX=0;exitY=0.5;exitDx=0;exitDy=0;entryX=1;entryY=0.5;entryDx=0;entryDy=0;labelBackgroundColor=default;strokeColor=default;strokeWidth=2;fontFamily=Helvetica;fontSize=11;fontColor=default;endArrow=blockThin;endFill=1;" edge="1" parent="1" source="Zg0RN65ZxF4rAXSrRmQK-4" target="Zg0RN65ZxF4rAXSrRmQK-8">
          <mxGeometry relative="1" as="geometry" />
        </mxCell>
        <mxCell id="Zg0RN65ZxF4rAXSrRmQK-4" value="&lt;b&gt;构造器中是否有this调用？&lt;/b&gt;" style="rhombus;whiteSpace=wrap;html=1;rounded=0;strokeColor=#000000;strokeWidth=2;fontFamily=Helvetica;fontSize=11;fillColor=#FF9D0A;" vertex="1" parent="1">
          <mxGeometry x="320" y="460" width="170" height="80" as="geometry" />
        </mxCell>
        <mxCell id="Zg0RN65ZxF4rAXSrRmQK-15" style="edgeStyle=orthogonalEdgeStyle;shape=connector;rounded=0;orthogonalLoop=1;jettySize=auto;html=1;exitX=0.5;exitY=1;exitDx=0;exitDy=0;entryX=0.5;entryY=0;entryDx=0;entryDy=0;labelBackgroundColor=default;strokeColor=default;strokeWidth=2;fontFamily=Helvetica;fontSize=11;fontColor=default;endArrow=blockThin;endFill=1;" edge="1" parent="1" source="Zg0RN65ZxF4rAXSrRmQK-6" target="Zg0RN65ZxF4rAXSrRmQK-14">
          <mxGeometry relative="1" as="geometry" />
        </mxCell>
        <mxCell id="Zg0RN65ZxF4rAXSrRmQK-46" style="edgeStyle=orthogonalEdgeStyle;shape=connector;rounded=0;orthogonalLoop=1;jettySize=auto;html=1;exitX=1;exitY=0.75;exitDx=0;exitDy=0;entryX=0;entryY=0.5;entryDx=0;entryDy=0;labelBackgroundColor=default;strokeColor=default;strokeWidth=2;fontFamily=Helvetica;fontSize=11;fontColor=default;endArrow=blockThin;endFill=1;" edge="1" parent="1" source="Zg0RN65ZxF4rAXSrRmQK-6" target="Zg0RN65ZxF4rAXSrRmQK-32">
          <mxGeometry relative="1" as="geometry">
            <Array as="points">
              <mxPoint x="500" y="575" />
              <mxPoint x="536" y="575" />
              <mxPoint x="536" y="415" />
            </Array>
          </mxGeometry>
        </mxCell>
        <mxCell id="Zg0RN65ZxF4rAXSrRmQK-6" value="&lt;b&gt;super/&lt;/b&gt;&lt;b style=&quot;border-color: var(--border-color);&quot;&gt;隐式&lt;/b&gt;&lt;b&gt;调用父类构造器&lt;/b&gt;" style="rounded=0;whiteSpace=wrap;html=1;fontFamily=Helvetica;fontSize=11;fontColor=default;fillColor=#69CDFF;strokeWidth=2;" vertex="1" parent="1">
          <mxGeometry x="310" y="560" width="190" height="30" as="geometry" />
        </mxCell>
        <mxCell id="Zg0RN65ZxF4rAXSrRmQK-11" style="edgeStyle=orthogonalEdgeStyle;shape=connector;rounded=0;orthogonalLoop=1;jettySize=auto;html=1;exitX=0.5;exitY=1;exitDx=0;exitDy=0;entryX=0.5;entryY=0;entryDx=0;entryDy=0;labelBackgroundColor=default;strokeColor=default;strokeWidth=2;fontFamily=Helvetica;fontSize=11;fontColor=default;endArrow=blockThin;endFill=1;" edge="1" parent="1" source="Zg0RN65ZxF4rAXSrRmQK-8" target="Zg0RN65ZxF4rAXSrRmQK-10">
          <mxGeometry relative="1" as="geometry" />
        </mxCell>
        <mxCell id="Zg0RN65ZxF4rAXSrRmQK-8" value="&lt;b&gt;对构造器中的形参赋值&lt;/b&gt;" style="rounded=0;whiteSpace=wrap;html=1;fontFamily=Helvetica;fontSize=11;fontColor=default;fillColor=#69CDFF;strokeWidth=2;" vertex="1" parent="1">
          <mxGeometry x="50" y="400" width="190" height="30" as="geometry" />
        </mxCell>
        <mxCell id="Zg0RN65ZxF4rAXSrRmQK-13" value="N" style="edgeStyle=orthogonalEdgeStyle;shape=connector;rounded=0;orthogonalLoop=1;jettySize=auto;html=1;exitX=0.5;exitY=1;exitDx=0;exitDy=0;entryX=0.5;entryY=0;entryDx=0;entryDy=0;labelBackgroundColor=default;strokeColor=default;strokeWidth=2;fontFamily=Helvetica;fontSize=11;fontColor=default;endArrow=blockThin;endFill=1;" edge="1" parent="1" source="Zg0RN65ZxF4rAXSrRmQK-10" target="Zg0RN65ZxF4rAXSrRmQK-12">
          <mxGeometry relative="1" as="geometry" />
        </mxCell>
        <mxCell id="Zg0RN65ZxF4rAXSrRmQK-42" style="edgeStyle=orthogonalEdgeStyle;shape=connector;rounded=0;orthogonalLoop=1;jettySize=auto;html=1;exitX=0;exitY=0.5;exitDx=0;exitDy=0;labelBackgroundColor=default;strokeColor=default;strokeWidth=2;fontFamily=Helvetica;fontSize=11;fontColor=default;endArrow=blockThin;endFill=1;" edge="1" parent="1" source="Zg0RN65ZxF4rAXSrRmQK-10">
          <mxGeometry relative="1" as="geometry">
            <mxPoint x="-20" y="500" as="targetPoint" />
          </mxGeometry>
        </mxCell>
        <mxCell id="Zg0RN65ZxF4rAXSrRmQK-10" value="&lt;b&gt;构造器中是否有this调用？&lt;/b&gt;" style="rhombus;whiteSpace=wrap;html=1;rounded=0;strokeColor=#000000;strokeWidth=2;fontFamily=Helvetica;fontSize=11;fillColor=#FF9D0A;" vertex="1" parent="1">
          <mxGeometry x="60" y="460" width="170" height="80" as="geometry" />
        </mxCell>
        <mxCell id="Zg0RN65ZxF4rAXSrRmQK-18" style="edgeStyle=orthogonalEdgeStyle;shape=connector;rounded=0;orthogonalLoop=1;jettySize=auto;html=1;exitX=0.5;exitY=1;exitDx=0;exitDy=0;entryX=0.5;entryY=0;entryDx=0;entryDy=0;labelBackgroundColor=default;strokeColor=default;strokeWidth=2;fontFamily=Helvetica;fontSize=11;fontColor=default;endArrow=blockThin;endFill=1;" edge="1" parent="1" source="Zg0RN65ZxF4rAXSrRmQK-12" target="Zg0RN65ZxF4rAXSrRmQK-17">
          <mxGeometry relative="1" as="geometry" />
        </mxCell>
        <mxCell id="Zg0RN65ZxF4rAXSrRmQK-43" style="edgeStyle=orthogonalEdgeStyle;shape=connector;rounded=0;orthogonalLoop=1;jettySize=auto;html=1;exitX=0;exitY=0.5;exitDx=0;exitDy=0;labelBackgroundColor=default;strokeColor=default;strokeWidth=2;fontFamily=Helvetica;fontSize=11;fontColor=default;endArrow=blockThin;endFill=1;entryX=0;entryY=0.5;entryDx=0;entryDy=0;dashed=1;" edge="1" parent="1" source="Zg0RN65ZxF4rAXSrRmQK-12" target="Zg0RN65ZxF4rAXSrRmQK-17">
          <mxGeometry relative="1" as="geometry">
            <mxPoint x="-10" y="640" as="targetPoint" />
            <Array as="points">
              <mxPoint y="575" />
              <mxPoint y="635" />
            </Array>
          </mxGeometry>
        </mxCell>
        <mxCell id="Zg0RN65ZxF4rAXSrRmQK-12" value="&lt;b&gt;super/&lt;/b&gt;&lt;b style=&quot;border-color: var(--border-color);&quot;&gt;隐式&lt;/b&gt;&lt;b&gt;调用父类构造器&lt;/b&gt;" style="rounded=0;whiteSpace=wrap;html=1;fontFamily=Helvetica;fontSize=11;fontColor=default;fillColor=#69CDFF;strokeWidth=2;" vertex="1" parent="1">
          <mxGeometry x="50" y="560" width="190" height="30" as="geometry" />
        </mxCell>
        <mxCell id="Zg0RN65ZxF4rAXSrRmQK-19" style="edgeStyle=orthogonalEdgeStyle;shape=connector;rounded=0;orthogonalLoop=1;jettySize=auto;html=1;exitX=0.5;exitY=1;exitDx=0;exitDy=0;entryX=0.5;entryY=0;entryDx=0;entryDy=0;labelBackgroundColor=default;strokeColor=default;strokeWidth=2;fontFamily=Helvetica;fontSize=11;fontColor=default;endArrow=blockThin;endFill=1;" edge="1" parent="1" source="Zg0RN65ZxF4rAXSrRmQK-14" target="Zg0RN65ZxF4rAXSrRmQK-16">
          <mxGeometry relative="1" as="geometry" />
        </mxCell>
        <mxCell id="Zg0RN65ZxF4rAXSrRmQK-14" value="&lt;b&gt;对当前类中的成员变量显式初始化&lt;/b&gt;" style="rounded=0;whiteSpace=wrap;html=1;fontFamily=Helvetica;fontSize=11;fontColor=default;fillColor=#69CDFF;strokeWidth=2;" vertex="1" parent="1">
          <mxGeometry x="310" y="620" width="190" height="30" as="geometry" />
        </mxCell>
        <mxCell id="Zg0RN65ZxF4rAXSrRmQK-16" value="&lt;b&gt;执行当前构造器&lt;/b&gt;" style="rounded=0;whiteSpace=wrap;html=1;fontFamily=Helvetica;fontSize=11;fontColor=default;fillColor=#69CDFF;strokeWidth=2;" vertex="1" parent="1">
          <mxGeometry x="310" y="680" width="190" height="30" as="geometry" />
        </mxCell>
        <mxCell id="Zg0RN65ZxF4rAXSrRmQK-21" style="edgeStyle=orthogonalEdgeStyle;shape=connector;rounded=0;orthogonalLoop=1;jettySize=auto;html=1;exitX=0.5;exitY=1;exitDx=0;exitDy=0;entryX=0.5;entryY=0;entryDx=0;entryDy=0;labelBackgroundColor=default;strokeColor=default;strokeWidth=2;fontFamily=Helvetica;fontSize=11;fontColor=default;endArrow=blockThin;endFill=1;" edge="1" parent="1" source="Zg0RN65ZxF4rAXSrRmQK-17" target="Zg0RN65ZxF4rAXSrRmQK-20">
          <mxGeometry relative="1" as="geometry" />
        </mxCell>
        <mxCell id="Zg0RN65ZxF4rAXSrRmQK-17" value="&lt;b&gt;对当前类中的成员变量显式初始化&lt;/b&gt;" style="rounded=0;whiteSpace=wrap;html=1;fontFamily=Helvetica;fontSize=11;fontColor=default;fillColor=#69CDFF;strokeWidth=2;" vertex="1" parent="1">
          <mxGeometry x="50" y="620" width="190" height="30" as="geometry" />
        </mxCell>
        <mxCell id="Zg0RN65ZxF4rAXSrRmQK-22" style="edgeStyle=orthogonalEdgeStyle;shape=connector;rounded=0;orthogonalLoop=1;jettySize=auto;html=1;exitX=1;exitY=0.5;exitDx=0;exitDy=0;entryX=0;entryY=0.5;entryDx=0;entryDy=0;labelBackgroundColor=default;strokeColor=default;strokeWidth=2;fontFamily=Helvetica;fontSize=11;fontColor=default;endArrow=blockThin;endFill=1;" edge="1" parent="1" source="Zg0RN65ZxF4rAXSrRmQK-20" target="Zg0RN65ZxF4rAXSrRmQK-16">
          <mxGeometry relative="1" as="geometry" />
        </mxCell>
        <mxCell id="Zg0RN65ZxF4rAXSrRmQK-20" value="&lt;b&gt;执行当前构造器&lt;/b&gt;" style="rounded=0;whiteSpace=wrap;html=1;fontFamily=Helvetica;fontSize=11;fontColor=default;fillColor=#69CDFF;strokeWidth=2;" vertex="1" parent="1">
          <mxGeometry x="50" y="680" width="190" height="30" as="geometry" />
        </mxCell>
        <mxCell id="Zg0RN65ZxF4rAXSrRmQK-24" value="&lt;b&gt;&lt;font style=&quot;font-size: 14px;&quot;&gt;流程2&lt;/font&gt;&lt;/b&gt;" style="text;html=1;align=center;verticalAlign=middle;resizable=0;points=[];autosize=1;strokeColor=none;fillColor=none;fontSize=11;fontFamily=Helvetica;fontColor=default;" vertex="1" parent="1">
          <mxGeometry x="120" y="360" width="60" height="30" as="geometry" />
        </mxCell>
        <mxCell id="Zg0RN65ZxF4rAXSrRmQK-28" value="&lt;b&gt;&lt;font style=&quot;font-size: 14px;&quot;&gt;流程1&lt;/font&gt;&lt;/b&gt;" style="text;html=1;align=center;verticalAlign=middle;resizable=0;points=[];autosize=1;strokeColor=none;fillColor=none;fontSize=11;fontFamily=Helvetica;fontColor=default;" vertex="1" parent="1">
          <mxGeometry x="372.5" y="285" width="60" height="30" as="geometry" />
        </mxCell>
        <mxCell id="Zg0RN65ZxF4rAXSrRmQK-30" value="&lt;span style=&quot;font-size: 14px;&quot;&gt;&lt;b&gt;父类流程&lt;/b&gt;&lt;/span&gt;" style="text;html=1;align=center;verticalAlign=middle;resizable=0;points=[];autosize=1;strokeColor=none;fillColor=none;fontSize=11;fontFamily=Helvetica;fontColor=default;" vertex="1" parent="1">
          <mxGeometry x="617.5" y="360" width="80" height="30" as="geometry" />
        </mxCell>
        <mxCell id="Zg0RN65ZxF4rAXSrRmQK-31" style="edgeStyle=orthogonalEdgeStyle;shape=connector;rounded=0;orthogonalLoop=1;jettySize=auto;html=1;exitX=0.5;exitY=1;exitDx=0;exitDy=0;labelBackgroundColor=default;strokeColor=default;strokeWidth=2;fontFamily=Helvetica;fontSize=11;fontColor=default;endArrow=blockThin;endFill=1;" edge="1" source="Zg0RN65ZxF4rAXSrRmQK-32" target="Zg0RN65ZxF4rAXSrRmQK-34" parent="1">
          <mxGeometry relative="1" as="geometry" />
        </mxCell>
        <mxCell id="Zg0RN65ZxF4rAXSrRmQK-32" value="&lt;b&gt;对构造器中的形参赋值&lt;/b&gt;" style="rounded=0;whiteSpace=wrap;html=1;fontFamily=Helvetica;fontSize=11;fontColor=default;fillColor=#69CDFF;strokeWidth=2;" vertex="1" parent="1">
          <mxGeometry x="562.5" y="400" width="190" height="30" as="geometry" />
        </mxCell>
        <mxCell id="Zg0RN65ZxF4rAXSrRmQK-33" value="N" style="edgeStyle=orthogonalEdgeStyle;shape=connector;rounded=0;orthogonalLoop=1;jettySize=auto;html=1;exitX=0.5;exitY=1;exitDx=0;exitDy=0;entryX=0.5;entryY=0;entryDx=0;entryDy=0;labelBackgroundColor=default;strokeColor=default;strokeWidth=2;fontFamily=Helvetica;fontSize=11;fontColor=default;endArrow=blockThin;endFill=1;" edge="1" source="Zg0RN65ZxF4rAXSrRmQK-34" target="Zg0RN65ZxF4rAXSrRmQK-36" parent="1">
          <mxGeometry relative="1" as="geometry" />
        </mxCell>
        <mxCell id="Zg0RN65ZxF4rAXSrRmQK-50" style="edgeStyle=orthogonalEdgeStyle;shape=connector;rounded=0;orthogonalLoop=1;jettySize=auto;html=1;exitX=1;exitY=0.5;exitDx=0;exitDy=0;entryX=-0.004;entryY=0.587;entryDx=0;entryDy=0;entryPerimeter=0;labelBackgroundColor=default;strokeColor=default;strokeWidth=2;fontFamily=Helvetica;fontSize=11;fontColor=default;endArrow=blockThin;endFill=1;" edge="1" parent="1" source="Zg0RN65ZxF4rAXSrRmQK-34" target="Zg0RN65ZxF4rAXSrRmQK-49">
          <mxGeometry relative="1" as="geometry" />
        </mxCell>
        <mxCell id="Zg0RN65ZxF4rAXSrRmQK-34" value="&lt;b&gt;构造器中是否有this调用？&lt;/b&gt;" style="rhombus;whiteSpace=wrap;html=1;rounded=0;strokeColor=#000000;strokeWidth=2;fontFamily=Helvetica;fontSize=11;fillColor=#FF9D0A;" vertex="1" parent="1">
          <mxGeometry x="572.5" y="460" width="170" height="80" as="geometry" />
        </mxCell>
        <mxCell id="Zg0RN65ZxF4rAXSrRmQK-35" style="edgeStyle=orthogonalEdgeStyle;shape=connector;rounded=0;orthogonalLoop=1;jettySize=auto;html=1;exitX=0.5;exitY=1;exitDx=0;exitDy=0;entryX=0.5;entryY=0;entryDx=0;entryDy=0;labelBackgroundColor=default;strokeColor=default;strokeWidth=2;fontFamily=Helvetica;fontSize=11;fontColor=default;endArrow=blockThin;endFill=1;" edge="1" source="Zg0RN65ZxF4rAXSrRmQK-36" target="Zg0RN65ZxF4rAXSrRmQK-38" parent="1">
          <mxGeometry relative="1" as="geometry" />
        </mxCell>
        <mxCell id="Zg0RN65ZxF4rAXSrRmQK-47" style="edgeStyle=orthogonalEdgeStyle;shape=connector;rounded=0;orthogonalLoop=1;jettySize=auto;html=1;exitX=1;exitY=0.5;exitDx=0;exitDy=0;labelBackgroundColor=default;strokeColor=default;strokeWidth=2;fontFamily=Helvetica;fontSize=11;fontColor=default;endArrow=blockThin;endFill=1;entryX=1;entryY=0.5;entryDx=0;entryDy=0;dashed=1;" edge="1" parent="1" source="Zg0RN65ZxF4rAXSrRmQK-36" target="Zg0RN65ZxF4rAXSrRmQK-38">
          <mxGeometry relative="1" as="geometry">
            <mxPoint x="800" y="630" as="targetPoint" />
            <Array as="points">
              <mxPoint x="800" y="575" />
              <mxPoint x="800" y="635" />
            </Array>
          </mxGeometry>
        </mxCell>
        <mxCell id="Zg0RN65ZxF4rAXSrRmQK-36" value="&lt;b&gt;super/&lt;/b&gt;&lt;b style=&quot;border-color: var(--border-color);&quot;&gt;隐式&lt;/b&gt;&lt;b&gt;调用父类构造器&lt;/b&gt;" style="rounded=0;whiteSpace=wrap;html=1;fontFamily=Helvetica;fontSize=11;fontColor=default;fillColor=#69CDFF;strokeWidth=2;" vertex="1" parent="1">
          <mxGeometry x="562.5" y="560" width="190" height="30" as="geometry" />
        </mxCell>
        <mxCell id="Zg0RN65ZxF4rAXSrRmQK-37" style="edgeStyle=orthogonalEdgeStyle;shape=connector;rounded=0;orthogonalLoop=1;jettySize=auto;html=1;exitX=0.5;exitY=1;exitDx=0;exitDy=0;entryX=0.5;entryY=0;entryDx=0;entryDy=0;labelBackgroundColor=default;strokeColor=default;strokeWidth=2;fontFamily=Helvetica;fontSize=11;fontColor=default;endArrow=blockThin;endFill=1;" edge="1" source="Zg0RN65ZxF4rAXSrRmQK-38" target="Zg0RN65ZxF4rAXSrRmQK-39" parent="1">
          <mxGeometry relative="1" as="geometry" />
        </mxCell>
        <mxCell id="Zg0RN65ZxF4rAXSrRmQK-38" value="&lt;b&gt;对当前类中的成员变量显式初始化&lt;/b&gt;" style="rounded=0;whiteSpace=wrap;html=1;fontFamily=Helvetica;fontSize=11;fontColor=default;fillColor=#69CDFF;strokeWidth=2;" vertex="1" parent="1">
          <mxGeometry x="562.5" y="620" width="190" height="30" as="geometry" />
        </mxCell>
        <mxCell id="Zg0RN65ZxF4rAXSrRmQK-52" style="edgeStyle=orthogonalEdgeStyle;shape=connector;rounded=0;orthogonalLoop=1;jettySize=auto;html=1;exitX=0;exitY=0.5;exitDx=0;exitDy=0;entryX=1;entryY=0.5;entryDx=0;entryDy=0;labelBackgroundColor=default;strokeColor=default;strokeWidth=2;fontFamily=Helvetica;fontSize=11;fontColor=default;endArrow=blockThin;endFill=1;" edge="1" parent="1" source="Zg0RN65ZxF4rAXSrRmQK-39" target="Zg0RN65ZxF4rAXSrRmQK-14">
          <mxGeometry relative="1" as="geometry" />
        </mxCell>
        <mxCell id="Zg0RN65ZxF4rAXSrRmQK-39" value="&lt;b&gt;执行当前构造器&lt;/b&gt;" style="rounded=0;whiteSpace=wrap;html=1;fontFamily=Helvetica;fontSize=11;fontColor=default;fillColor=#69CDFF;strokeWidth=2;" vertex="1" parent="1">
          <mxGeometry x="562.5" y="680" width="190" height="30" as="geometry" />
        </mxCell>
        <mxCell id="Zg0RN65ZxF4rAXSrRmQK-41" style="edgeStyle=orthogonalEdgeStyle;shape=connector;rounded=0;orthogonalLoop=1;jettySize=auto;html=1;exitX=0.5;exitY=1;exitDx=0;exitDy=0;labelBackgroundColor=default;strokeColor=default;strokeWidth=2;fontFamily=Helvetica;fontSize=11;fontColor=default;endArrow=blockThin;endFill=1;" edge="1" parent="1" source="Zg0RN65ZxF4rAXSrRmQK-23" target="Zg0RN65ZxF4rAXSrRmQK-23">
          <mxGeometry relative="1" as="geometry" />
        </mxCell>
        <mxCell id="Zg0RN65ZxF4rAXSrRmQK-44" value="&lt;span style=&quot;font-size: 14px;&quot;&gt;&lt;b&gt;继续按流程1方式&lt;br&gt;调用this对应的构造器&lt;/b&gt;&lt;/span&gt;" style="text;html=1;align=center;verticalAlign=middle;resizable=0;points=[];autosize=1;strokeColor=none;fillColor=none;fontSize=11;fontFamily=Helvetica;fontColor=default;" vertex="1" parent="1">
          <mxGeometry x="-180" y="475" width="160" height="50" as="geometry" />
        </mxCell>
        <mxCell id="Zg0RN65ZxF4rAXSrRmQK-45" value="&lt;span style=&quot;font-size: 14px;&quot;&gt;&lt;b&gt;继续按流程1方式&lt;br&gt;一直追溯到Object&lt;br&gt;&lt;/b&gt;&lt;/span&gt;" style="text;html=1;align=center;verticalAlign=middle;resizable=0;points=[];autosize=1;strokeColor=none;fillColor=none;fontSize=11;fontFamily=Helvetica;fontColor=default;" vertex="1" parent="1">
          <mxGeometry x="-140" y="580" width="140" height="50" as="geometry" />
        </mxCell>
        <mxCell id="Zg0RN65ZxF4rAXSrRmQK-48" value="&lt;span style=&quot;font-size: 14px;&quot;&gt;&lt;b&gt;&lt;br&gt;一直追溯到Object&lt;br&gt;&lt;/b&gt;&lt;/span&gt;" style="text;html=1;align=center;verticalAlign=middle;resizable=0;points=[];autosize=1;strokeColor=none;fillColor=none;fontSize=11;fontFamily=Helvetica;fontColor=default;" vertex="1" parent="1">
          <mxGeometry x="800" y="570" width="140" height="50" as="geometry" />
        </mxCell>
        <mxCell id="Zg0RN65ZxF4rAXSrRmQK-49" value="&lt;span style=&quot;font-size: 14px;&quot;&gt;&lt;b&gt;继续按流程1方式&lt;br&gt;调用this对应的构造器&lt;/b&gt;&lt;/span&gt;" style="text;html=1;align=center;verticalAlign=middle;resizable=0;points=[];autosize=1;strokeColor=none;fillColor=none;fontSize=11;fontFamily=Helvetica;fontColor=default;" vertex="1" parent="1">
          <mxGeometry x="817" y="470" width="160" height="50" as="geometry" />
        </mxCell>
      </root>
    </mxGraphModel>
  </diagram>
  <diagram id="B0knLKIflHqa4rj5mPdY" name="赋值顺序流程">
    <mxGraphModel dx="954" dy="657" grid="1" gridSize="10" guides="1" tooltips="1" connect="1" arrows="1" fold="1" page="1" pageScale="1" pageWidth="827" pageHeight="1169" math="0" shadow="0">
      <root>
        <mxCell id="0" />
        <mxCell id="1" parent="0" />
        <mxCell id="tri2qO27yVvfofa1kl4k-28" style="edgeStyle=orthogonalEdgeStyle;shape=connector;rounded=0;orthogonalLoop=1;jettySize=auto;html=1;exitX=1;exitY=0.5;exitDx=0;exitDy=0;entryX=0;entryY=0.5;entryDx=0;entryDy=0;labelBackgroundColor=default;strokeColor=default;strokeWidth=2;fontFamily=Helvetica;fontSize=11;fontColor=default;endArrow=blockThin;endFill=1;" edge="1" parent="1" source="tri2qO27yVvfofa1kl4k-27" target="tri2qO27yVvfofa1kl4k-9">
          <mxGeometry relative="1" as="geometry" />
        </mxCell>
        <mxCell id="tri2qO27yVvfofa1kl4k-27" value="" style="rounded=1;whiteSpace=wrap;html=1;fontFamily=Helvetica;fontSize=11;fontColor=default;strokeWidth=2;dashed=1;gradientColor=none;strokeColor=#004cff;arcSize=0;" vertex="1" parent="1">
          <mxGeometry x="380" y="230" width="290" height="110" as="geometry" />
        </mxCell>
        <mxCell id="tri2qO27yVvfofa1kl4k-13" style="edgeStyle=orthogonalEdgeStyle;shape=connector;rounded=0;orthogonalLoop=1;jettySize=auto;html=1;exitX=1;exitY=0.5;exitDx=0;exitDy=0;entryX=0;entryY=0.5;entryDx=0;entryDy=0;labelBackgroundColor=default;strokeColor=default;strokeWidth=2;fontFamily=Helvetica;fontSize=11;fontColor=default;endArrow=blockThin;endFill=1;" edge="1" parent="1" source="tri2qO27yVvfofa1kl4k-1" target="tri2qO27yVvfofa1kl4k-27">
          <mxGeometry relative="1" as="geometry">
            <mxPoint x="350" y="295" as="targetPoint" />
          </mxGeometry>
        </mxCell>
        <mxCell id="tri2qO27yVvfofa1kl4k-1" value="&lt;b&gt;默认初始化&lt;/b&gt;" style="rounded=0;whiteSpace=wrap;html=1;fillColor=#d5e8d4;strokeColor=#82b366;" vertex="1" parent="1">
          <mxGeometry x="200" y="260" width="110" height="50" as="geometry" />
        </mxCell>
        <mxCell id="tri2qO27yVvfofa1kl4k-2" value="&lt;b&gt;显式初始化&lt;/b&gt;" style="rounded=0;whiteSpace=wrap;html=1;fillColor=#d5e8d4;strokeColor=#82b366;" vertex="1" parent="1">
          <mxGeometry x="390" y="270" width="110" height="50" as="geometry" />
        </mxCell>
        <mxCell id="tri2qO27yVvfofa1kl4k-3" value="&lt;b style=&quot;border-color: var(--border-color);&quot;&gt;非静态代码块&lt;/b&gt;" style="rounded=0;whiteSpace=wrap;html=1;fillColor=#d5e8d4;strokeColor=#82b366;" vertex="1" parent="1">
          <mxGeometry x="550" y="270" width="110" height="50" as="geometry" />
        </mxCell>
        <mxCell id="tri2qO27yVvfofa1kl4k-11" style="edgeStyle=orthogonalEdgeStyle;shape=connector;rounded=0;orthogonalLoop=1;jettySize=auto;html=1;exitX=1;exitY=0.5;exitDx=0;exitDy=0;entryX=0;entryY=0.5;entryDx=0;entryDy=0;labelBackgroundColor=default;strokeColor=default;strokeWidth=2;fontFamily=Helvetica;fontSize=11;fontColor=default;endArrow=blockThin;endFill=1;" edge="1" parent="1" source="tri2qO27yVvfofa1kl4k-9" target="tri2qO27yVvfofa1kl4k-10">
          <mxGeometry relative="1" as="geometry" />
        </mxCell>
        <mxCell id="tri2qO27yVvfofa1kl4k-9" value="&lt;b&gt;构造器&lt;/b&gt;" style="rounded=0;whiteSpace=wrap;html=1;fillColor=#d5e8d4;strokeColor=#82b366;" vertex="1" parent="1">
          <mxGeometry x="717" y="260" width="110" height="50" as="geometry" />
        </mxCell>
        <mxCell id="tri2qO27yVvfofa1kl4k-10" value="&lt;b&gt;对象调用赋值&lt;/b&gt;" style="rounded=0;whiteSpace=wrap;html=1;fillColor=#ffcc99;strokeColor=#36393d;" vertex="1" parent="1">
          <mxGeometry x="880" y="260" width="110" height="50" as="geometry" />
        </mxCell>
        <mxCell id="tri2qO27yVvfofa1kl4k-18" value="&lt;b&gt;静态代码块&lt;/b&gt;" style="rounded=0;whiteSpace=wrap;html=1;fillColor=#dae8fc;strokeColor=#6c8ebf;" vertex="1" parent="1">
          <mxGeometry x="380" y="360" width="90" height="40" as="geometry" />
        </mxCell>
        <mxCell id="tri2qO27yVvfofa1kl4k-29" value="&lt;b style=&quot;font-size: 13px;&quot;&gt;由在代码中的先后顺序决定执行顺序&lt;/b&gt;" style="text;html=1;strokeColor=none;fillColor=none;align=center;verticalAlign=middle;whiteSpace=wrap;rounded=0;fontSize=13;fontFamily=Helvetica;fontColor=default;" vertex="1" parent="1">
          <mxGeometry x="414" y="240" width="220" height="30" as="geometry" />
        </mxCell>
        <mxCell id="tri2qO27yVvfofa1kl4k-32" style="edgeStyle=orthogonalEdgeStyle;shape=connector;rounded=0;orthogonalLoop=1;jettySize=auto;html=1;exitX=1;exitY=0.5;exitDx=0;exitDy=0;entryX=0;entryY=0.5;entryDx=0;entryDy=0;labelBackgroundColor=default;strokeColor=default;strokeWidth=2;fontFamily=Helvetica;fontSize=11;fontColor=default;endArrow=none;endFill=0;dashed=1;" edge="1" parent="1" source="tri2qO27yVvfofa1kl4k-31" target="tri2qO27yVvfofa1kl4k-18">
          <mxGeometry relative="1" as="geometry" />
        </mxCell>
        <mxCell id="tri2qO27yVvfofa1kl4k-31" value="&lt;b&gt;静态变量&lt;/b&gt;" style="rounded=0;whiteSpace=wrap;html=1;fillColor=#dae8fc;strokeColor=#6c8ebf;" vertex="1" parent="1">
          <mxGeometry x="220" y="360" width="90" height="40" as="geometry" />
        </mxCell>
        <mxCell id="tri2qO27yVvfofa1kl4k-33" value="" style="endArrow=none;dashed=1;html=1;rounded=0;labelBackgroundColor=default;strokeColor=default;strokeWidth=2;fontFamily=Helvetica;fontSize=11;fontColor=default;shape=connector;" edge="1" parent="1">
          <mxGeometry width="50" height="50" relative="1" as="geometry">
            <mxPoint x="340" y="371" as="sourcePoint" />
            <mxPoint x="340" y="291" as="targetPoint" />
          </mxGeometry>
        </mxCell>
      </root>
    </mxGraphModel>
  </diagram>
  <diagram id="5tXKcapkCj9DlzM_6xBF" name="第 4 页">
    <mxGraphModel dx="954" dy="657" grid="1" gridSize="10" guides="1" tooltips="1" connect="1" arrows="1" fold="1" page="1" pageScale="1" pageWidth="827" pageHeight="1169" math="0" shadow="0">
      <root>
        <mxCell id="0" />
        <mxCell id="1" parent="0" />
      </root>
    </mxGraphModel>
  </diagram>
</mxfile>
